<svg width="229" height="199" viewBox="0 0 229 199" fill="none" xmlns="http://www.w3.org/2000/svg">
<g id="Background" clip-path="url(#clip0_1_2065)">
<g id="Vector">
<path d="M226.379 -11.3311C226.687 -7.92106 226.994 -4.43852 227.319 -0.901554C223.813 12.9742 222.041 27.3397 222.041 41.8141V103.647C222.041 112.59 214.884 119.827 206.064 119.827C201.654 119.827 197.659 118.013 194.767 115.093C191.876 112.172 190.086 108.128 190.086 103.647V26.5961C190.086 11.7771 176.115 1.20248 161.999 5.12035C161.854 5.17476 161.692 5.21104 161.547 5.24732C151.877 7.91364 145.1 16.6926 145.1 26.8318V104.699C145.1 111.012 140.057 116.127 133.803 116.127C130.694 116.127 127.857 114.839 125.814 112.771C123.772 110.703 122.507 107.855 122.507 104.699V87.3774C122.507 84.6929 120.356 82.5345 117.699 82.5526H117.573C114.952 82.5707 112.837 84.7292 112.837 87.3774V176.618C112.837 188.045 103.692 197.295 92.4133 197.295C86.7742 197.295 81.6592 194.974 77.9721 191.237C74.2849 187.501 71.9895 182.331 71.9895 176.618V45.6231C71.9895 41.016 69.0253 36.953 64.6875 35.5926L64.4706 35.5201C57.7651 33.3979 50.9692 38.4585 50.9692 45.5687V44.6255C50.9692 56.0526 41.8237 65.3031 30.5454 65.3031C24.9062 65.3031 19.7912 62.9814 16.1041 59.2449C12.417 55.5084 10.1215 50.339 10.1215 44.6255V41.6327C10.1396 23.4944 7.21159 5.6645 1.66281 -11.3311" fill="#E20D44"/>
<path d="M226.379 -11.3311C226.687 -7.92106 226.994 -4.43852 227.319 -0.901554C223.813 12.9742 222.041 27.3397 222.041 41.8141V103.647C222.041 112.59 214.884 119.827 206.064 119.827C201.654 119.827 197.659 118.013 194.767 115.093C191.876 112.172 190.086 108.128 190.086 103.647V26.5961C190.086 11.7771 176.115 1.20248 161.999 5.12035C161.854 5.17476 161.692 5.21104 161.547 5.24732C151.877 7.91364 145.1 16.6926 145.1 26.8318V104.699C145.1 111.012 140.057 116.127 133.803 116.127C130.694 116.127 127.857 114.839 125.814 112.771C123.772 110.703 122.507 107.855 122.507 104.699V87.3774C122.507 84.6929 120.356 82.5345 117.699 82.5526H117.573C114.952 82.5707 112.837 84.7292 112.837 87.3774V176.618C112.837 188.045 103.692 197.295 92.4133 197.295C86.7742 197.295 81.6592 194.974 77.9721 191.237C74.2849 187.501 71.9895 182.331 71.9895 176.618V45.6231C71.9895 41.016 69.0253 36.953 64.6875 35.5926L64.4706 35.5201C57.7651 33.3979 50.9692 38.4585 50.9692 45.5687V44.6255C50.9692 56.0526 41.8237 65.3031 30.5454 65.3031C24.9062 65.3031 19.7912 62.9814 16.1041 59.2449C12.417 55.5084 10.1215 50.339 10.1215 44.6255V41.6327C10.1396 23.4944 7.21159 5.6645 1.66281 -11.3311" stroke="#1B1B1B" stroke-width="1.84" stroke-miterlimit="10" stroke-linecap="round"/>
</g>
<path id="Vector_2" d="M81.9303 120.697V157.899" stroke="white" stroke-width="3.19" stroke-miterlimit="10" stroke-linecap="round"/>
<path id="Vector_3" d="M81.9845 167.022V172.283" stroke="white" stroke-width="3.19" stroke-miterlimit="10" stroke-linecap="round"/>
<path id="Vector_4" d="M215.047 71.415V91.1676" stroke="white" stroke-width="3.19" stroke-miterlimit="10" stroke-linecap="round"/>
<path id="Vector_5" d="M215.047 97.2266V101.435" stroke="white" stroke-width="3.19" stroke-miterlimit="10" stroke-linecap="round"/>
</g>
<defs>
<clipPath id="clip0_1_2065">
<rect width="229" height="212" fill="white" transform="translate(0 -13)"/>
</clipPath>
</defs>
</svg>
