<svg width="127" height="127" viewBox="0 0 127 127" fill="none" xmlns="http://www.w3.org/2000/svg">
<g id="Background">
<g id="Group">
<path id="Vector" d="M63.5 127C98.5701 127 127 98.5701 127 63.5C127 28.4299 98.5701 0 63.5 0C28.4299 0 0 28.4299 0 63.5C0 98.5701 28.4299 127 63.5 127Z" fill="#3C3C3B"/>
<path id="Vector_2" d="M63.4999 122.063C31.207 122.063 4.93701 95.7901 4.93701 63.5004C4.93701 31.2106 31.207 4.9375 63.4999 4.9375C95.7928 4.9375 122.063 31.2106 122.063 63.5004C122.063 95.7901 95.7928 122.063 63.4999 122.063Z" fill="white"/>
<path id="Vector_3" d="M63.4999 6.35285C95.0594 6.35285 120.647 31.937 120.647 63.4997C120.647 95.0624 95.0626 120.646 63.4999 120.646C31.9372 120.646 6.3531 95.0592 6.3531 63.4997C6.3531 31.9402 31.9404 6.35285 63.4999 6.35285ZM63.4999 3.51758C30.4259 3.52075 3.521 30.4257 3.521 63.4997C3.521 96.5737 30.4291 123.479 63.4999 123.479C96.5707 123.479 123.482 96.5705 123.482 63.4997C123.482 30.4289 96.5739 3.52075 63.4999 3.52075V3.51758Z" fill="#282725"/>
<path id="Vector_4" d="M108.312 52.5585C108.096 50.4185 106.436 48.6628 103.372 47.3324C102.86 47.1102 102.299 46.8975 101.676 46.6847C95.2087 32.0226 80.5529 21.7832 63.5 21.7832C40.4622 21.7832 21.7837 40.4586 21.7837 63.4995C21.7837 86.5405 40.459 105.216 63.5 105.216C86.541 105.216 105.216 86.5405 105.216 63.4995C105.216 62.3819 105.159 61.2802 105.073 60.1848C105.375 59.9308 105.67 59.6578 105.947 59.3689L105.972 59.3435L105.994 59.3181L106.204 59.0831C107.826 57.2384 108.547 54.9905 108.315 52.5585H108.312Z" fill="#282725"/>
<path id="Vector_5" d="M78.4224 32.2646C75.9745 32.2646 73.8885 33.8109 73.0693 35.9762C73.2598 36.6144 73.3678 37.2907 73.3678 37.9892C73.3678 38.6877 73.2598 39.3703 73.0693 40.0116C73.1392 40.1926 73.2154 40.3704 73.3043 40.545C76.4793 41.0022 79.5717 41.4944 82.5054 41.9992C83.531 40.9737 84.1533 39.5576 84.1533 37.9955C84.1533 34.8396 81.5815 32.2678 78.4256 32.2678L78.4224 32.2646Z" fill="white"/>
<path id="Vector_6" d="M80.6863 36.7257V35.0938C79.8481 35.1001 79.21 35.7764 79.21 36.6082C79.21 37.4401 79.9021 38.1767 80.7371 38.1767C81.4801 38.1767 82.1151 37.6274 82.2453 36.967C82.2516 36.9289 82.2992 36.5352 82.1976 36.2431C82.0643 35.8653 81.9055 35.7002 81.9055 35.6589L80.6863 36.7257Z" fill="#282725"/>
<path id="Vector_7" d="M66.348 31.6514C62.8523 31.6514 60.0075 34.4962 60.0075 37.9918C60.0075 41.4875 62.8523 44.3291 66.348 44.3291C69.8437 44.3291 72.6885 41.4843 72.6885 37.9918C72.6885 34.4993 69.8437 31.6514 66.348 31.6514Z" fill="white"/>
<path id="Vector_8" d="M70.3231 36.7343V34.9277C69.396 34.9341 68.688 35.6834 68.688 36.6041C68.688 37.5249 69.4532 38.3409 70.3803 38.3409C71.2026 38.3409 71.9043 37.7313 72.0503 37.001C72.0598 36.9597 72.1106 36.5216 71.9963 36.2009C71.8503 35.7818 71.6725 35.6008 71.6725 35.5532L70.3199 36.7343H70.3231Z" fill="#282725"/>
<path id="Vector_9" d="M106.474 52.7339C106.305 51.067 104.61 49.8859 102.638 49.0286C101.867 48.6921 101.054 48.4159 100.273 48.1714C99.276 47.8729 98.3362 47.6412 97.6091 47.4538L97.4885 47.4253C91.0527 45.8155 82.2802 44.1645 73.4156 42.9168C73.3045 42.8977 73.2029 42.8882 73.0981 42.8691C71.4503 45.3456 68.7389 46.9681 65.6845 46.9681C62.6302 46.9681 59.9663 45.3837 58.309 42.9549C54.2672 43.7454 50.9049 45.2726 48.2696 47.5459C42.9705 52.0989 40.3448 59.5506 40.2432 70.3234C40.1956 74.6922 39.786 81.1438 39.3383 87.2715C39.9892 86.8715 41.1544 86.173 42.6626 85.3919L41.7958 84.1632C41.6085 83.8933 41.6751 83.5218 41.945 83.3345C42.2149 83.1377 42.5864 83.2043 42.7737 83.4742L43.7326 84.8426C44.5993 84.4235 45.5391 83.9854 46.5456 83.5568L44.9454 82.617C44.666 82.4487 44.5644 82.0867 44.7327 81.8073C44.9009 81.5279 45.2629 81.4359 45.5518 81.5946L47.8886 82.9726L47.9902 81.5025C48.0093 81.1755 48.2982 80.9437 48.6252 80.9533C48.9522 80.9723 49.2031 81.2612 49.1745 81.5883L49.1078 82.5757C50.0762 82.2391 51.0731 81.9248 52.0987 81.6645C52.4162 81.5819 52.74 81.7661 52.8258 82.0931C52.8988 82.4106 52.7146 82.7344 52.3971 82.8106C51.2414 83.1091 50.1048 83.471 49.0157 83.8711L48.9776 84.3918C48.9586 84.7093 48.6982 84.9411 48.3903 84.9411H48.3426C48.0251 84.922 47.7934 84.6521 47.7934 84.3442C46.5837 84.8268 45.447 85.3411 44.4215 85.8428C44.5517 86.1031 44.4882 86.4301 44.2437 86.6048C44.1421 86.6778 44.0215 86.7064 43.9008 86.7064C43.7135 86.7064 43.5294 86.6238 43.4151 86.4555L43.3579 86.3825C40.9735 87.6112 39.4272 88.6272 39.3891 88.6463C39.3415 88.6844 39.278 88.6844 39.2209 88.7034C39.0716 90.7989 38.9034 92.8468 38.7637 94.7201C45.5518 100.111 54.1497 103.334 63.4874 103.334C65.929 103.334 68.3198 103.112 70.6407 102.692C69.3008 93.9676 67.3641 75.4351 67.1482 69.3074C67.4276 69.3804 67.7165 69.4661 67.9959 69.5296C69.9993 69.9963 72.2155 70.2916 74.4507 70.2916C79.5339 70.2916 84.6488 68.774 87.2269 64.4528C87.5539 63.9035 87.3761 63.1955 86.8268 62.878C86.2871 62.5414 85.5791 62.7288 85.252 63.2685C85.2139 63.3352 85.1695 63.3892 85.1314 63.4463C84.9917 63.3987 84.8329 63.3638 84.6392 63.3352C84.3217 63.2876 83.6518 63.7162 83.1121 64.0527C82.2834 64.5734 81.3531 65.1513 80.299 65.1513C80.1403 65.1513 79.9625 65.1418 79.7974 65.1037C78.7369 64.9068 78.0734 63.9384 77.4955 63.0907C77.2447 62.7192 76.7684 62.0207 76.5462 61.9445C76.2572 61.8874 75.4381 62.3922 74.9079 62.7256C73.8379 63.3765 72.6346 64.1226 71.3138 63.8622C70.3645 63.6749 69.7294 63.1256 69.2278 62.678C68.7706 62.2779 68.4721 62.0271 68.0435 61.9414C67.4212 61.8302 67.0085 61.2238 67.1323 60.6015C67.2434 59.9792 67.8499 59.576 68.4722 59.6903C69.5326 59.8967 70.2057 60.4809 70.7455 60.9571C71.1741 61.3286 71.4344 61.5445 71.7615 61.608C72.1996 61.7001 73.0283 61.1794 73.6982 60.7698C74.7332 60.1284 75.8128 59.4553 77.0034 59.6903C78.1115 59.9125 78.7909 60.9095 79.3973 61.7953C79.6386 62.1573 80.0577 62.7637 80.2546 62.8558C80.6007 62.9129 81.2896 62.4843 81.8929 62.1001C82.7946 61.5318 83.8106 60.8904 84.9663 61.0587C86.2331 61.246 86.8744 61.7001 87.3888 62.0747C87.8365 62.3922 88.0778 62.5605 88.8049 62.5954C93.5356 62.8462 99.4411 61.9064 103.108 59.3442C103.667 58.9727 104.169 58.5441 104.607 58.0869C104.68 58.0044 104.756 57.9186 104.829 57.8361C106.105 56.3819 106.655 54.6706 106.467 52.7339H106.474ZM45.9963 89.1003C45.8947 89.1733 45.7741 89.2114 45.6598 89.2114C45.4724 89.2114 45.2883 89.1194 45.1676 88.9511L45.028 88.7542C44.8406 88.4844 44.9073 88.1129 45.1772 87.9256C45.447 87.7382 45.8122 87.8049 46.0058 88.0748L46.1455 88.2716C46.3329 88.5415 46.2662 88.913 45.9963 89.1003ZM52.2923 86.2492C52.1812 86.446 51.9844 86.5476 51.7812 86.5476C51.6796 86.5476 51.5748 86.519 51.4827 86.4651L49.7873 85.4681C49.5079 85.2998 49.4063 84.9379 49.5714 84.6585C49.7397 84.3696 50.1016 84.2775 50.3905 84.4458L52.0765 85.4427C52.3654 85.611 52.4574 85.9729 52.2892 86.2523L52.2923 86.2492ZM57.9629 82.9726C57.8613 83.0361 57.7502 83.0742 57.6264 83.0742C57.439 83.0742 57.2549 82.9916 57.1342 82.8233L55.534 80.5151C55.3467 80.2452 55.4134 79.8738 55.6833 79.6864C55.9531 79.4991 56.3246 79.5658 56.5119 79.8357L58.1153 82.1439C58.3026 82.4138 58.236 82.7852 57.9661 82.9726H57.9629Z" fill="white"/>
<g id="Group_2">
<path id="Vector_10" d="M86.4521 66.507C86.7537 66.0403 87.2553 65.6624 87.7602 65.4275C87.4268 65.2148 87.1315 65.002 86.8648 64.7893C86.4711 64.6433 86.1346 64.675 85.8393 64.8973C85.3186 65.2878 85.0614 66.1196 85.0138 66.5673C85.3948 66.8435 85.779 67.1102 86.1631 67.3611C86.1822 67.069 86.2743 66.78 86.4489 66.507H86.4521Z" fill="#E5D2AD"/>
<path id="Vector_11" d="M85.4551 64.3825C85.652 64.2365 85.8679 64.1507 86.0933 64.1031C85.7758 63.7856 85.5281 63.4967 85.3503 63.2617C84.382 63.1347 83.0929 63.484 82.3785 64.3063C83.0072 64.9667 83.7089 65.5763 84.4391 66.1415C84.5756 65.5414 84.8995 64.7984 85.4551 64.3825Z" fill="#E5D2AD"/>
<path id="Vector_12" d="M92.783 70.5322C94.0339 70.7735 94.688 70.3608 94.9801 69.1575C95.0944 68.6939 95.0626 68.2939 94.9007 67.9827C95.0404 68.5542 94.8721 69.1702 94.6816 69.44C94.5895 69.567 94.4149 69.5988 94.2847 69.5067C94.1577 69.4146 94.1292 69.24 94.2181 69.113C94.3419 68.9416 94.4848 68.4082 94.3292 67.9986C94.2244 67.7255 94.0053 67.5573 93.6593 67.4842C93.3894 67.4239 93.2052 67.6112 93.0814 67.8271C93.2148 67.7636 93.383 67.7255 93.6116 67.7382C93.7672 67.7478 93.8879 67.8811 93.8783 68.0399C93.8688 68.1954 93.7291 68.3161 93.5767 68.3066C93.3545 68.2939 93.2687 68.3669 93.2243 68.424C92.983 68.7479 93.1925 69.6591 93.3322 70.0528C93.3672 70.1512 93.3449 70.2592 93.2783 70.3354C93.2243 70.3957 93.1449 70.4306 93.0655 70.4306C93.0433 70.4306 93.0243 70.4306 93.002 70.4243C92.3131 70.2687 92.113 69.2019 92.3194 68.2621C92.4115 67.8398 92.5766 67.5096 92.7893 67.2779C91.0113 66.9858 89.5984 66.4619 88.4904 65.8682C88.0078 65.9698 87.3283 66.3317 86.9854 66.8651C86.7854 67.1731 86.7409 67.4811 86.8425 67.7954C89.5794 69.4559 92.1765 70.4243 92.7798 70.5418L92.783 70.5322Z" fill="#E5D2AD"/>
</g>
<path id="Vector_13" d="M93.0847 67.8243C93.218 67.7608 93.3863 67.7227 93.6149 67.7354C93.7705 67.7449 93.8911 67.8782 93.8816 68.037C93.8721 68.1926 93.7324 68.3132 93.58 68.3037C93.3577 68.291 93.272 68.364 93.2275 68.4212C93.072 68.6307 93.1037 69.0847 93.1831 69.4848C93.3291 69.6467 93.5069 69.7578 93.707 69.7578C93.9197 69.7578 94.107 69.6404 94.2562 69.4626C94.1673 69.3673 94.1419 69.2276 94.2213 69.1165C94.3451 68.945 94.488 68.4116 94.3324 68.0021C94.2277 67.729 94.0086 67.5607 93.6625 67.4877C93.5355 67.4591 93.4276 67.4877 93.3355 67.548C93.2783 67.5893 93.2244 67.6401 93.1767 67.6973C93.1418 67.7385 93.1132 67.7862 93.0847 67.8338V67.8243Z" fill="#AC2535"/>
<path id="Vector_14" d="M95.2024 67.2749C94.7865 66.8336 94.1546 66.624 93.545 66.7161C91.5638 66.4716 90.0271 65.916 88.8524 65.2874L88.8619 65.1794C88.7984 65.1731 88.7254 65.1794 88.6555 65.1794C87.0109 64.2587 86.1282 63.2109 85.8044 62.7632L85.7282 62.6553L85.598 62.6331C84.3534 62.4108 82.5595 62.868 81.6832 64.1348L81.534 64.3507L81.7118 64.5444C83.0199 65.9668 84.6963 67.2178 86.3537 68.2401C86.3727 68.2782 86.3791 68.3195 86.4013 68.3608L86.4775 68.3163C89.1889 69.9705 91.8178 71.0119 92.6592 71.1738C92.9195 71.2246 93.164 71.25 93.3926 71.25C94.5578 71.25 95.304 70.5991 95.6183 69.3133C95.8183 68.4941 95.6691 67.7734 95.2024 67.2749ZM86.4521 66.5066C86.2775 66.7796 86.1854 67.0685 86.1663 67.3606C85.779 67.1098 85.3948 66.8431 85.017 66.5669C85.0614 66.1192 85.3186 65.2874 85.8425 64.8968C86.1377 64.6746 86.4743 64.6428 86.868 64.7889C87.1347 65.0016 87.43 65.2143 87.7634 65.4271C87.2585 65.662 86.7537 66.0398 86.4552 66.5066H86.4521ZM82.3785 64.3031C83.0929 63.484 84.382 63.1315 85.3504 63.2585C85.5282 63.4935 85.7726 63.7824 86.0933 64.0999C85.8679 64.1475 85.652 64.2333 85.4551 64.3793C84.8995 64.7952 84.5757 65.5382 84.4391 66.1383C83.7089 65.5731 83.0072 64.9635 82.3785 64.3031ZM94.9801 69.1545C94.688 70.3578 94.034 70.7674 92.783 70.5293C92.1798 70.4118 89.5826 69.4434 86.8458 67.7829C86.7474 67.4686 86.7918 67.1638 86.9887 66.8526C87.3316 66.3192 88.011 65.9573 88.4936 65.8557C89.6017 66.4494 91.0146 66.9733 92.7926 67.2654C92.5798 67.4972 92.4147 67.8305 92.3226 68.2496C92.1163 69.1894 92.3131 70.2562 93.0053 70.4118C93.0243 70.415 93.0466 70.4182 93.0688 70.4182C93.1482 70.4182 93.2275 70.3832 93.2815 70.3229C93.3482 70.2467 93.3704 70.1388 93.3355 70.0403C93.1958 69.6498 92.9831 68.7354 93.2275 68.4116C93.2688 68.3544 93.3577 68.2782 93.5799 68.2941C93.7323 68.3036 93.8721 68.1861 93.8816 68.0274C93.8911 67.8718 93.7705 67.7353 93.6149 67.7258C93.3863 67.7162 93.218 67.7512 93.0846 67.8147C93.2085 67.5956 93.3926 67.4083 93.6625 67.4718C94.0086 67.5448 94.2276 67.7131 94.3324 67.9861C94.4912 68.3957 94.3451 68.9291 94.2213 69.1005C94.1292 69.2275 94.161 69.4053 94.288 69.4942C94.415 69.5895 94.5928 69.5546 94.6849 69.4276C94.8754 69.1609 95.0436 68.5449 94.9039 67.9702C95.0659 68.2814 95.0944 68.6783 94.9833 69.145L94.9801 69.1545Z" fill="#282725"/>
<g id="Group_3" opacity="0.68">
<path id="Vector_15" fill-rule="evenodd" clip-rule="evenodd" d="M102.432 28.8418C101.302 30.0451 99.7839 31.1786 98.1805 31.4135C94.5579 31.9406 91.5829 35.2489 90.5955 36.2713C90.351 36.5443 90.116 36.8237 89.9033 37.1063C87.8427 39.64 86.214 42.7292 86.7029 46.1424C87.0268 45.9804 87.5157 45.9804 87.8396 45.8185C88.0015 46.7393 88.4365 47.5711 89.0429 48.2442C89.3477 48.5808 89.6938 48.8792 90.0716 49.1269C91.0908 49.8825 92.3925 50.0445 93.5292 49.3936C93.2053 51.0192 94.5039 51.832 95.6437 52.6448C94.0181 54.2704 92.3925 56.7088 93.3672 58.8233C93.8562 60.287 96.2946 59.96 96.7804 61.6332C96.9772 62.2714 96.9772 62.9826 96.7962 63.6239C96.4375 64.9003 95.5262 65.9702 94.6341 66.9958C94.9801 67.145 95.196 67.4752 95.2913 67.8562C96.8343 65.9099 98.3774 63.9636 99.9204 62.0205C99.7268 61.738 99.4823 61.4903 99.2061 61.2744C97.917 60.2902 94.8277 59.6393 95.6405 58.1756C96.9423 55.0863 101.168 51.1843 96.2914 49.0697C97.2661 48.4188 98.8917 47.4441 97.9202 45.7931C97.7011 45.3042 97.4249 44.8629 97.1074 44.4723C95.5104 42.5292 92.8243 41.9418 90.9288 40.4528C89.7922 39.478 91.4178 37.8524 92.0337 36.6682C92.2306 36.2268 92.7195 35.7379 93.0434 35.576C96.2946 34.4393 100.035 33.7884 101.984 31.023C102.489 30.3499 102.587 29.6006 102.426 28.8418H102.432ZM91.1193 44.5358C92.1988 44.3993 93.3831 44.4564 94.3896 44.974C94.7261 45.1454 95.0405 45.3708 95.323 45.6534C95.812 45.9773 96.2978 46.9552 95.812 47.4409C94.5102 48.4157 92.5608 48.4157 91.7004 46.8599C91.4178 46.4726 91.1987 46.0281 91.0685 45.5582C90.9193 45.2026 90.8336 44.7073 91.1193 44.5326V44.5358Z" fill="#CDCBC2"/>
</g>
<g id="Group_4">
<path id="Vector_16" d="M16.256 47.9455C20.0502 48.7519 21.1582 50.3744 20.3772 54.0478L19.2628 59.2898L8.4646 56.9942L9.5695 51.8031C10.3505 48.1296 12.046 47.0501 15.8433 47.8566L16.2592 47.9455H16.256ZM11.5983 54.7559L17.3038 55.9687L17.7483 53.8891C18.2119 51.7079 17.4117 51.1522 15.529 50.7522L15.3575 50.7173C13.4747 50.3172 12.5032 50.4982 12.0396 52.6762L11.5983 54.7559Z" fill="#282725"/>
<path id="Vector_17" d="M23.3014 45.1893L22.206 47.8119L12.0174 43.5542L13.1128 40.9316L23.3014 45.1893Z" fill="#282725"/>
<path id="Vector_18" d="M25.3016 41.2684L23.7522 43.6497L14.4971 37.6267L17.9579 32.3054C19.5073 29.9241 20.6757 29.5463 22.4727 30.7179L22.7648 30.9084C24.1523 31.8133 24.5111 32.6197 23.965 33.8072L24.057 33.8675C24.9365 32.9785 25.4858 32.6832 27.1908 33.7913L29.2799 35.1502L27.7242 37.5441L25.7684 36.271C24.9079 35.7122 24.5365 35.7661 23.7681 36.9441L22.2473 39.2809L25.3016 41.2684ZM18.123 36.5948L20.1708 37.9283L21.9425 35.2073C22.4187 34.4771 22.387 34.0643 21.6567 33.5913L21.5774 33.5405C20.7709 33.0166 20.3613 33.1531 19.6628 34.2231L18.1198 36.5948H18.123Z" fill="#282725"/>
<path id="Vector_19" d="M34.3155 30.3622L32.2422 32.3085L26.5843 26.2855L24.1618 28.562L22.2632 26.5395L29.2005 20.0244L31.0992 22.0469L28.6576 24.3392L34.3155 30.3622Z" fill="#282725"/>
<path id="Vector_20" d="M43.0912 24.3366L40.602 25.7368L38.2938 21.641L31.5183 18.1771L34.4711 16.5134L38.3858 18.6533L38.4652 18.6089L38.6621 14.1544L41.3322 12.6494L40.7703 20.2281L43.088 24.3366H43.0912Z" fill="#282725"/>
<path id="Vector_21" d="M55.4578 20.2562C52.7622 20.7452 50.6667 20.3546 49.8952 17.8623L52.8701 17.3225C53.2575 18.0686 53.9877 18.0813 55.3593 17.8337C56.9087 17.5543 57.4104 17.1733 57.2897 16.4272L57.2675 16.3033C57.1627 15.7287 56.8579 15.5096 55.9308 15.662L53.4226 16.0049C50.835 16.3446 49.7364 15.6937 49.3554 13.5982L49.3364 13.4903C48.8823 10.9916 50.1015 9.68029 53.375 9.08656L53.721 9.02306C56.388 8.54046 58.455 9.11196 59.217 11.5726L56.242 12.1123C55.8864 11.3249 55.1879 11.1948 53.8925 11.4297C52.4034 11.6996 52.0192 12.0584 52.1526 12.7886L52.1621 12.8362C52.2669 13.4109 52.559 13.63 53.4893 13.5093L55.9816 13.1537C58.5661 12.7823 59.6742 13.4966 60.0425 15.5318L60.0615 15.6398C60.5568 18.3734 59.1344 19.5926 55.9023 20.1768L55.4546 20.2594L55.4578 20.2562Z" fill="#282725"/>
<path id="Vector_22" d="M66.7544 19.6371C63.0143 19.3323 61.6617 17.7956 61.9761 13.9285L62.0364 13.1887C62.3507 9.31836 63.935 8.00709 67.6752 8.31189L68.4023 8.37221C72.1424 8.67701 73.5077 10.2296 73.1933 14.0999L73.133 14.8397C72.8187 18.71 71.2217 20.0054 67.4815 19.7006L66.7544 19.6403V19.6371ZM67.4847 17.0685C69.6659 17.2463 70.1072 16.3319 70.2596 14.4619L70.2977 13.9888C70.4533 12.0997 70.1644 11.144 67.98 10.9662L67.6815 10.9408C65.4876 10.763 65.0622 11.6615 64.9066 13.5475L64.8685 14.0205C64.7161 15.8938 64.9891 16.8653 67.1862 17.0431L67.4847 17.0685Z" fill="#282725"/>
<path id="Vector_23" d="M78.3781 22.1041C74.9174 20.8309 74.0982 19.0148 75.4349 15.3731L75.6952 14.6619C77.0319 11.017 78.8321 10.1661 82.2929 11.4393L82.966 11.6869C86.0362 12.8172 86.922 14.3698 86.287 17.1638L83.5597 16.1605C83.6168 15.6271 83.5153 15.2207 83.2676 14.9096C83.02 14.5984 82.5374 14.3222 81.8166 14.0555L81.6325 13.9888C79.6259 13.249 79.0068 14.0301 78.3591 15.7954L78.1971 16.2399C77.5494 18.002 77.5177 18.999 79.5211 19.7387L79.7052 19.8054C80.426 20.0721 80.9753 20.1705 81.3626 20.0943C81.7531 20.0181 82.0929 19.7737 82.3945 19.3292L85.1218 20.3325C83.801 22.8725 82.1183 23.4821 79.048 22.3518L78.3749 22.1041H78.3781Z" fill="#282725"/>
<path id="Vector_24" d="M87.1093 26.114L84.7979 24.463L91.2178 15.4746L93.5292 17.1256L90.9511 20.7356L91.0241 20.7896L97.2185 19.764L100.327 21.9834L94.0372 22.9422L94.0023 31.0416L90.9352 28.8541L90.9575 23.4407L90.8717 23.3804L88.8302 23.7074L87.1062 26.1204L87.1093 26.114Z" fill="#282725"/>
<path id="Vector_25" d="M100.121 38.4521L94.4468 31.7338L102.889 24.6123L108.563 31.3306L106.658 32.9372L102.819 28.3906L101.47 29.5304L105.308 34.077L103.391 35.6931L99.5522 31.1465L98.1901 32.2958L102.029 36.8424L100.124 38.449L100.121 38.4521Z" fill="#282725"/>
<path id="Vector_26" d="M102.156 42.0716L100.902 39.5221L110.804 34.6357L113.608 40.3317C114.862 42.8812 114.592 44.0782 112.668 45.0275L112.357 45.1831C110.871 45.9165 109.995 45.8117 109.252 44.7386L109.153 44.7862C109.468 45.9959 109.442 46.6214 107.617 47.5231L105.381 48.6248L104.118 46.0626L106.213 45.0307C107.134 44.5767 107.277 44.2306 106.655 42.9638L105.423 40.4619L102.156 42.0748V42.0716ZM109.839 38.2806L107.645 39.3601L109.08 42.2716C109.465 43.0558 109.836 43.2368 110.614 42.8526L110.7 42.8114C111.563 42.3859 111.652 41.9636 111.09 40.8175L109.839 38.2806Z" fill="#282725"/>
<path id="Vector_27" d="M106.556 54.4827C106.007 51.803 106.35 49.6948 108.823 48.8693L109.43 51.8315C108.69 52.2348 108.696 52.965 108.976 54.3334C109.29 55.8797 109.684 56.3718 110.427 56.2321L110.55 56.2067C111.122 56.0892 111.331 55.7812 111.16 54.8573L110.763 52.3586C110.363 49.7805 110.989 48.6661 113.074 48.2406L113.182 48.2184C115.672 47.7104 117.008 48.8978 117.675 52.1554L117.745 52.5015C118.288 55.1589 117.764 57.2354 115.322 58.0546L114.716 55.0923C115.494 54.7208 115.608 54.0191 115.341 52.7301C115.04 51.2473 114.672 50.8727 113.944 51.0187L113.897 51.0283C113.325 51.1457 113.113 51.441 113.252 52.3713L113.665 54.8541C114.094 57.4259 113.408 58.553 111.382 58.9658L111.274 58.988C108.553 59.5436 107.302 58.1498 106.645 54.9335L106.553 54.4858L106.556 54.4827Z" fill="#282725"/>
</g>
<g id="Group_5">
<path id="Vector_28" d="M35.3123 108.337C33.1565 106.991 32.9724 105.947 34.3217 103.785L36.5633 100.19L38.2746 101.257L36.0839 104.772C35.3663 105.921 35.4774 106.331 36.4014 106.906L36.5728 107.01C37.5126 107.598 37.9158 107.496 38.627 106.356L40.8178 102.842L42.5291 103.908L40.2876 107.502C38.9382 109.668 37.919 109.963 35.7695 108.623L35.3155 108.341L35.3123 108.337Z" fill="#282725"/>
<path id="Vector_29" d="M47.8155 114.135L45.0374 113.043L44.2437 107.141L44.177 107.116L42.2752 111.957L40.5099 111.262L43.2435 104.306L46.0217 105.398L46.8122 111.31L46.8789 111.335L48.7839 106.484L50.5492 107.179L47.8155 114.135Z" fill="#282725"/>
<path id="Vector_30" d="M51.8128 115.059L49.8919 114.589L51.6699 107.337L53.5908 107.81L51.8128 115.062V115.059Z" fill="#282725"/>
<path id="Vector_31" d="M58.7756 116.154L56.2515 115.868L54.2004 108.118L56.4801 108.375L57.7977 113.798L57.8707 113.808L60.3726 108.813L62.4904 109.052L58.7724 116.151L58.7756 116.154Z" fill="#282725"/>
<path id="Vector_32" d="M69.5642 116.088L63.4619 116.431L63.046 108.976L69.1483 108.633L69.2436 110.316L65.1161 110.547L65.1827 111.741L69.3102 111.509L69.4055 113.205L65.278 113.437L65.3447 114.64L69.4722 114.408L69.5674 116.091L69.5642 116.088Z" fill="#282725"/>
<path id="Vector_33" d="M73.6506 115.395L71.7202 115.827L70.0851 108.534L74.3967 107.566C76.3271 107.131 77.0891 107.499 77.4066 108.915L77.4574 109.144C77.7019 110.239 77.4828 110.801 76.6351 111.122L76.6509 111.195C77.5209 111.176 77.9368 111.29 78.2384 112.633L78.6068 114.281L76.67 114.716L76.3239 113.173C76.1715 112.496 75.962 112.347 75.0063 112.56L73.1108 112.985L73.6506 115.392V115.395ZM72.3806 109.737L72.7425 111.353L74.946 110.858C75.5397 110.725 75.7238 110.509 75.5937 109.934L75.581 109.871C75.4381 109.236 75.1682 109.109 74.3015 109.306L72.3806 109.737Z" fill="#282725"/>
<path id="Vector_34" d="M83.7502 112.446C81.9913 113.176 80.5149 113.237 79.6386 111.706L81.5817 110.9C81.95 111.335 82.4485 111.233 83.3438 110.862C84.3566 110.44 84.6424 110.113 84.4551 109.636L84.4202 109.557C84.2678 109.192 84.0328 109.093 83.4232 109.335L81.769 109.941C80.0609 110.56 79.2258 110.294 78.6702 108.963L78.6417 108.893C77.9813 107.306 78.6226 106.255 80.7562 105.366L80.9816 105.271C82.7215 104.547 84.2043 104.613 85.071 106.125L83.1279 106.931C82.7755 106.465 82.2834 106.484 81.4388 106.836C80.4673 107.239 80.2577 107.538 80.4482 108.001L80.4609 108.03C80.6133 108.395 80.8419 108.497 81.4579 108.274L83.0994 107.661C84.798 107.023 85.652 107.328 86.1886 108.62L86.2172 108.69C86.9411 110.424 86.1474 111.446 84.0392 112.326L83.747 112.446H83.7502Z" fill="#282725"/>
<path id="Vector_35" d="M94.1038 106.705L88.919 109.944L84.9566 103.607L90.1414 100.368L91.0336 101.797L87.5284 103.988L88.1602 105L91.6686 102.81L92.5671 104.251L89.0619 106.442L89.7001 107.464L93.2053 105.274L94.1006 106.705H94.1038Z" fill="#282725"/>
</g>
<path id="Vector_36" d="M96.3073 94.1104L99.9427 95.1391L102.048 91.999L102.191 95.7741L105.826 96.8028L102.279 98.1077L102.426 101.883L100.089 98.9142L96.5422 100.219L98.6441 97.079L96.3073 94.1104Z" fill="#282725"/>
<path id="Vector_37" d="M103.562 83.6166L107.34 83.588L108.477 79.9844L109.674 83.5689L113.452 83.5372L110.414 85.7819L111.611 89.3665L108.537 87.1726L105.499 89.4173L106.636 85.8137L103.562 83.6166Z" fill="#282725"/>
<path id="Vector_38" d="M107.585 71.5167L111.204 70.4277L111.287 66.6494L113.44 69.7546L117.059 68.6687L114.77 71.6754L116.923 74.7806L113.357 73.5328L111.068 76.5395L111.154 72.7613L107.585 71.5167Z" fill="#282725"/>
<path id="Vector_39" d="M31.4579 94.6116L27.8384 95.6943L25.6889 92.5859L25.6 96.3642L21.9805 97.4469L25.5429 98.6978L25.454 102.476L27.7463 99.4725L31.3119 100.727L29.1656 97.6151L31.4579 94.6116Z" fill="#282725"/>
<path id="Vector_40" d="M24.0506 84.2293L20.2724 84.2547L19.0817 80.667L17.9387 84.2674L14.1605 84.2928L17.2307 86.4931L16.0877 90.0967L19.1294 87.8552L22.1996 90.0555L21.009 86.4709L24.0506 84.2293Z" fill="#282725"/>
<path id="Vector_41" d="M19.8502 72.1871L16.218 71.152L16.0783 67.377L13.9701 70.5138L10.3379 69.4788L12.6683 72.4506L10.5601 75.5875L14.1098 74.2889L16.4402 77.2607L16.3037 73.4857L19.8502 72.1871Z" fill="#282725"/>
</g>
<g id="Group_6">
<path id="Vector_42" d="M55.175 43.665C54.7369 46.3543 53.651 49.4435 51.9492 52.5106C48.6694 58.4256 44.1038 62.4452 40.697 62.7754C41.9035 53.9711 46.2152 47.1607 55.1719 43.665H55.175Z" fill="#282725"/>
<g id="Group_7">
<path id="Vector_43" d="M49.5014 34.8549L46.5073 41.3573C41.7289 43.2369 39.2175 48.4408 39.008 48.6122L36.1664 55.0892L35.7473 56.0417L35.344 55.7972L31.4832 53.4541L28.6384 51.7301L27.7367 51.1808C31.8484 49.2313 27.6478 44.9419 27.6478 44.9419C35.1916 45.8055 31.5467 37.9506 31.5467 37.9506C39.3731 38.8935 38.3476 30.9148 38.3476 30.9148C43.8403 33.4071 45.866 29.0225 45.866 29.0225L47.2566 31.2513L48.6632 33.5056L49.5045 34.8549H49.5014Z" fill="#F3AE13"/>
<path id="Vector_44" d="M49.5013 34.8544L49.2409 34.7338L46.2469 41.2362L46.5072 41.3568L46.4025 41.087C43.945 42.0553 42.0908 43.8619 40.8208 45.4431C40.1858 46.2336 39.6969 46.9671 39.354 47.5163C39.1825 47.7894 39.046 48.018 38.9507 48.1767C38.9031 48.2561 38.8618 48.3228 38.8364 48.3641C38.8237 48.3863 38.811 48.4022 38.8079 48.4085L38.9349 48.5133L38.8333 48.3895C38.8079 48.4117 38.8079 48.4149 38.8079 48.4149L38.9349 48.5165L38.8333 48.3926L38.7793 48.4371L35.9091 54.9776L35.6233 55.6285L35.4995 55.5554L31.6387 53.2123L28.7939 51.4883L27.8922 50.939L27.743 51.1866L27.8668 51.447C28.5082 51.1422 28.9749 50.7771 29.2924 50.3611C29.6099 49.9484 29.775 49.4912 29.8194 49.034C29.8734 48.4942 29.7718 47.9577 29.594 47.456C29.3273 46.7067 28.8955 46.0368 28.5304 45.5446C28.1653 45.0557 27.8636 44.7477 27.8573 44.7414L27.6509 44.9446L27.6192 45.2303C27.67 45.2367 27.7176 45.2398 27.7652 45.2462C28.6288 45.3351 29.3559 45.3097 29.9687 45.1891C30.8862 45.0113 31.5498 44.608 31.9848 44.0715C32.4198 43.5349 32.6261 42.884 32.6928 42.2204C32.7976 41.1758 32.5753 40.0868 32.3309 39.2518C32.0864 38.4168 31.8165 37.8389 31.8133 37.8294L31.553 37.9501L31.5181 38.2358C31.5911 38.2453 31.6641 38.2517 31.734 38.2612C33.0579 38.3946 34.1438 38.2771 35.0328 37.9755C36.3663 37.5246 37.2362 36.6578 37.776 35.699C38.3189 34.737 38.5443 33.6828 38.6332 32.8097C38.7444 31.7143 38.6396 30.8952 38.6396 30.8793L38.3538 30.9174L38.2332 31.181C39.2143 31.6255 40.0937 31.8604 40.8811 31.9398C41.8178 32.035 42.621 31.9112 43.2941 31.6667C44.3038 31.3016 45.0118 30.673 45.4658 30.1396C45.9199 29.6062 46.1262 29.1617 46.1326 29.1458L45.8722 29.0251L45.6278 29.1775L47.0184 31.4064L48.4218 33.6606L49.2631 35.01L49.5076 34.8576L49.7521 34.7052L48.9107 33.3558L47.5042 31.1016L45.831 28.4219L45.6055 28.9077C45.596 28.9299 45.2531 29.6443 44.5038 30.292C44.1292 30.6158 43.6529 30.927 43.0687 31.1365C42.4813 31.3461 41.7797 31.454 40.9383 31.3683C40.2207 31.2953 39.4016 31.0794 38.4681 30.6571L37.9982 30.4444L38.0649 30.9587V30.9651C38.0744 31.0413 38.157 31.7906 38.0586 32.7558C38.0014 33.305 37.8903 33.9242 37.6744 34.5306C37.3505 35.4418 36.8076 36.3181 35.8964 36.9245C34.982 37.531 33.6834 37.8834 31.7911 37.6929C31.7244 37.6865 31.6546 37.677 31.5847 37.6707L31.0704 37.6103L31.2895 38.0802V38.0866C31.318 38.1437 31.5752 38.7152 31.7975 39.4995C32.0229 40.2837 32.2102 41.2806 32.1181 42.1728C32.0769 42.5633 31.988 42.9316 31.8292 43.2587C31.5879 43.7476 31.2101 44.1476 30.5783 44.4175C29.9496 44.6842 29.0574 44.8081 27.8224 44.681C27.7747 44.6779 27.7303 44.6715 27.6827 44.6652L26.8762 44.5731L27.4445 45.1541H27.4477C27.4985 45.2113 28.0033 45.7447 28.4637 46.4813C28.6955 46.8496 28.9114 47.2687 29.0606 47.6973C29.2098 48.1291 29.2829 48.5673 29.2416 48.9832C29.2035 49.3451 29.0828 49.688 28.832 50.0151C28.5812 50.3421 28.1938 50.6564 27.616 50.9295L27.1334 51.1581L28.4923 51.9835L31.3561 53.7203L35.2011 56.0539L35.8837 56.4667L36.433 55.2125L39.2746 48.7355L39.0111 48.6212L39.192 48.8435C39.2174 48.8244 39.227 48.8086 39.2397 48.7959C39.2619 48.7705 39.2746 48.7514 39.2936 48.726C39.354 48.6371 39.4365 48.4974 39.5508 48.3069C39.954 47.6401 40.7478 46.3511 41.9289 45.0398C43.11 43.7254 44.6784 42.3951 46.6152 41.6331L46.7231 41.5918L49.8283 34.8417L49.7457 34.7084L49.5013 34.8608V34.8544Z" fill="#11100C"/>
<path id="Vector_45" d="M51.0889 48.6313C50.3904 49.6696 49.5807 50.7205 48.6727 51.7492C43.9165 57.134 38.246 59.8962 36.0108 57.9214C35.3186 57.3118 35.0361 56.3212 35.1123 55.0829C37.8713 55.0734 42.1322 52.4699 45.8374 48.2726C46.6312 47.3772 47.3455 46.4628 47.9774 45.5548C49.9776 42.6941 51.1555 39.8842 51.2889 37.7824C52.0731 37.776 52.7335 37.9824 53.2256 38.4174C55.0386 40.0176 54.0448 44.2276 51.0857 48.6313H51.0889Z" fill="#F3AE13"/>
<path id="Vector_46" d="M51.0889 48.6313C47.2408 52.8128 43.9229 53.7621 43.9229 53.7621L47.7551 46.4914L47.9774 45.5548C49.9776 42.6941 51.1555 39.8842 51.2889 37.7824C52.0731 37.776 52.7335 37.9824 53.2256 38.4174C55.0386 40.0176 54.0448 44.2276 51.0857 48.6313H51.0889Z" fill="#F3AE13"/>
<path id="Vector_47" d="M48.6727 51.7523L48.4568 51.5618C46.5232 53.7494 44.4404 55.4988 42.5132 56.6609C41.5512 57.2419 40.6272 57.6769 39.7859 57.9468C38.9445 58.2166 38.1857 58.3214 37.557 58.2579C37.0046 58.2008 36.5537 58.0198 36.2045 57.7086C35.9028 57.4419 35.6869 57.0927 35.5536 56.6577C35.4202 56.2227 35.3694 55.6989 35.4044 55.1051L35.1154 55.0861V55.375C35.852 55.375 36.6648 55.2004 37.5348 54.8797C40.1383 53.9209 43.253 51.6444 46.0597 48.4694C47.6662 46.6501 48.968 44.7642 49.9046 42.9766C50.8412 41.1891 51.4159 39.5064 51.5619 38.0776C51.5715 37.9855 51.5778 37.8966 51.5842 37.8046L51.2952 37.7855V38.0744C51.4349 38.0744 51.5683 38.0808 51.6985 38.0935C52.2477 38.1506 52.6954 38.3316 53.0415 38.6396C53.3653 38.9253 53.5876 39.3063 53.7209 39.7858C53.8511 40.2652 53.886 40.843 53.8194 41.4971C53.686 42.8211 53.1367 44.4498 52.2223 46.1866C51.3111 47.9265 50.0348 49.7775 48.4568 51.565L48.6727 51.7555L48.8886 51.946C50.4951 50.1267 51.7937 48.2408 52.7303 46.4564C53.667 44.6689 54.2416 42.9862 54.3877 41.5574C54.4607 40.8494 54.4258 40.2049 54.2702 39.6365C54.1146 39.0682 53.8353 38.5793 53.4162 38.211C52.9653 37.8109 52.3906 37.5887 51.7493 37.5252C51.6 37.5093 51.4445 37.5029 51.2857 37.5029H51.0158L51 37.7728C50.9936 37.8554 50.9873 37.9379 50.9777 38.0236C50.8444 39.3476 50.2951 40.9764 49.3807 42.7131C48.4695 44.453 47.1931 46.304 45.6152 48.0916C43.78 50.1712 41.8052 51.8539 39.9605 53.0128C39.0366 53.5938 38.1476 54.0415 37.3252 54.3431C36.5029 54.6448 35.7504 54.8003 35.1059 54.8035H34.836L34.8202 55.0734C34.7789 55.7179 34.8329 56.3116 34.9916 56.8323C35.1504 57.353 35.4234 57.8039 35.8139 58.1468C36.268 58.5468 36.8458 58.7723 37.4903 58.8358C38.2269 58.9088 39.0588 58.7881 39.9541 58.5024C41.2972 58.0706 42.7894 57.2673 44.3166 56.1561C45.8438 55.0448 47.409 53.6224 48.8854 51.9524L48.6695 51.7619L48.6727 51.7523Z" fill="#282725"/>
<path id="Vector_48" d="M49.5013 34.8545L46.5073 41.3569C41.7289 43.2365 39.2175 48.4403 39.0079 48.6118L36.1663 55.0888L35.8266 55.2888L35.3471 55.7968L31.4863 53.4537L34.4994 53.1235C34.4994 53.1235 36.5378 50.0723 36.7664 49.8278C36.995 49.5833 37.3696 47.7641 37.3696 47.7641L38.2332 47.7069L38.3761 48.2054C38.4967 47.9768 40.6462 42.9793 45.123 40.7791C45.123 40.7791 49.3552 36.3309 48.6663 33.502L49.5076 34.8513L49.5013 34.8545Z" fill="#CE7314"/>
<path id="Vector_49" d="M49.5014 34.8544L49.241 34.7337L46.247 41.2361L46.5073 41.3568L46.4026 41.0869C43.9451 42.0553 42.0909 43.8619 40.8209 45.443C40.1859 46.2336 39.697 46.967 39.3541 47.5163C39.1826 47.7893 39.0461 48.0179 38.9508 48.1767C38.9032 48.2561 38.8619 48.3227 38.8365 48.364C38.8238 48.3862 38.8111 48.4021 38.808 48.4085L38.935 48.5132L38.8334 48.3894C38.808 48.4116 38.808 48.4148 38.808 48.4148L38.935 48.5164L38.8334 48.3926L38.7794 48.437L35.9473 54.8918L35.652 55.0664L35.3028 55.4347L32.3659 53.6536L34.6678 53.4027L34.744 53.2916C34.744 53.2916 34.871 53.1011 35.0646 52.8122C35.3567 52.3772 35.7981 51.72 36.1918 51.1485C36.3886 50.8627 36.5696 50.5992 36.7125 50.396C36.7855 50.2944 36.8458 50.2087 36.8934 50.1452C36.9188 50.1134 36.9379 50.0849 36.9538 50.0658C36.9696 50.0468 36.9823 50.0309 36.9823 50.0309C37.0204 49.9896 37.0427 49.9515 37.0649 49.9134C37.1062 49.8404 37.1411 49.761 37.1728 49.6721C37.2903 49.3578 37.4078 48.9069 37.4999 48.5228C37.5919 48.1418 37.6554 47.8306 37.6554 47.8306L37.3729 47.7735L37.3919 48.0624L38.0237 48.0211L38.3 48.9863L38.6333 48.3481C38.646 48.3196 38.6619 48.291 38.6841 48.2402C38.8556 47.8751 39.4747 46.5765 40.5637 45.1192C41.6528 43.6618 43.2117 42.0489 45.25 41.0456L45.2977 41.0234L45.3326 40.9853C45.3326 40.9853 46.1771 40.0995 47.0534 38.8644C47.4916 38.2453 47.9424 37.5404 48.3012 36.807C48.66 36.0704 48.933 35.3084 49.0092 34.5686C49.0473 34.1845 49.0346 33.8066 48.9457 33.4447L48.6663 33.5145L48.4219 33.6669L49.2632 35.0163L49.5077 34.8639L49.7522 34.7115L47.9615 31.835L48.3869 33.5812C48.4568 33.867 48.4695 34.1781 48.4377 34.5115C48.3742 35.1528 48.1266 35.8609 47.7837 36.5562C47.2725 37.6008 46.5518 38.6136 45.9612 39.3629C45.666 39.7375 45.4024 40.0455 45.2151 40.2582C45.1199 40.3662 45.0437 40.4487 44.9929 40.5059C44.9675 40.5345 44.9484 40.5567 44.9325 40.5694L44.9135 40.5916L45.123 40.7916L44.996 40.5313C42.6973 41.6616 41.0114 43.4999 39.8843 45.0747C39.3191 45.8621 38.8937 46.5892 38.6016 47.1321C38.4555 47.4052 38.3412 47.6306 38.2619 47.7957C38.2206 47.8782 38.1888 47.9449 38.1666 47.9957C38.1444 48.0433 38.1253 48.0814 38.1253 48.0814L38.3793 48.2148L38.6556 48.1354L38.4492 47.4147L37.1347 47.5004L37.0903 47.7163C37.0903 47.7163 37.0839 47.7449 37.0744 47.7925C37.0363 47.9671 36.9411 48.4053 36.8299 48.8244C36.776 49.0339 36.7156 49.2371 36.6617 49.3927C36.6331 49.4721 36.6077 49.5388 36.5855 49.5832C36.5759 49.6054 36.5664 49.6245 36.5601 49.634L36.5537 49.6435L36.6204 49.6975L36.5569 49.6404H36.5537L36.6204 49.6975L36.5569 49.6404C36.5283 49.6689 36.5061 49.7007 36.4743 49.7388C36.3632 49.8817 36.1759 50.1515 35.9473 50.4786C35.2678 51.4628 34.2582 52.9709 34.2582 52.9709L34.4963 53.1297L34.4646 52.8439L30.6069 53.263L35.3948 56.1682L36.0076 55.5205L36.395 55.2919L39.2747 48.7291L39.0112 48.6148L39.1921 48.8371C39.2175 48.818 39.2271 48.8022 39.2398 48.7895C39.262 48.7641 39.2747 48.745 39.2937 48.7196C39.3541 48.6307 39.4366 48.491 39.5509 48.3005C39.9541 47.6338 40.7479 46.3447 41.929 45.0334C43.1101 43.719 44.6785 42.3887 46.6153 41.6267L46.7232 41.5854L49.8284 34.8353L49.7458 34.702L49.5014 34.8544Z" fill="#11100C"/>
<path id="Vector_50" d="M28.5241 51.663C28.4448 51.6217 28.3717 51.5773 28.3019 51.5392C28.0066 51.3709 27.8161 51.2376 27.7526 51.1963L28.3051 51.5297L28.5241 51.663Z" fill="#F1A700"/>
<path id="Vector_51" d="M28.524 51.6629L28.6606 51.4089C28.5844 51.3676 28.5113 51.3263 28.4415 51.2882L28.3018 51.539L28.4447 51.2882C28.1589 51.1231 27.9748 50.9961 27.9176 50.958L27.7525 51.193L27.6033 51.4406L28.1557 51.774L28.3748 51.9073L28.524 51.6597L28.6733 51.412L28.4542 51.2787L27.9017 50.9453L27.5874 51.4279C27.6541 51.4755 27.8541 51.6121 28.1589 51.7867C28.2256 51.8248 28.3018 51.8661 28.3843 51.9105L28.6701 51.412L28.5209 51.6597L28.524 51.6629Z" fill="#282725"/>
<path id="Vector_52" d="M52.27 43.075C51.7493 44.3513 50.946 45.7928 49.9078 47.2882C49.1966 48.3137 48.3742 49.3646 47.4567 50.4029C46.0565 51.9904 44.5579 53.3334 43.1101 54.3843C42.1258 55.0987 41.1638 55.6765 40.278 56.102C39.3033 56.5719 38.4143 56.8576 37.6777 56.9338C37.1728 56.9878 36.741 56.9434 36.4013 56.7973L36.3632 56.7116L31.7372 53.6191L31.6007 53.5144L29.0163 51.5046C31.0197 52.5904 36.1918 54.5494 37.4903 46.7484C37.4903 46.7484 38.6048 46.8945 39.9541 46.7167C42.0496 46.4373 44.7166 45.3705 44.669 41.7478C44.6595 40.8461 44.4785 39.7825 44.0785 38.5315C44.0785 38.5315 52.3652 38.7601 46.52 29.1367L52.4795 38.7411L52.6446 39.0078C52.6446 39.0078 52.6922 39.0681 52.7716 39.1824V39.1888C53.1526 40.0428 52.9526 41.4208 52.2731 43.0813L52.27 43.075Z" fill="#F3AE13"/>
<path id="Vector_53" d="M45.5834 43.1797L49.1013 47.2088L45.0373 44.0909L45.0659 42.5479L45.5834 43.1797Z" fill="white"/>
<path id="Vector_54" d="M51.4571 44.0809C51.7523 44.3476 50.9459 45.789 50.1521 46.7669L45.7421 42.1981L44.761 39.2295L46.9454 38.6104L51.4571 44.0809Z" fill="white"/>
<path id="Vector_55" d="M47.4566 50.4032L47.2407 50.2127C45.3865 52.3145 43.3513 53.9909 41.5098 55.1053C40.5922 55.6641 39.7223 56.0801 38.9539 56.3436C38.1856 56.6071 37.5188 56.7087 37.0204 56.6579C36.8267 56.6389 36.6584 56.5976 36.5187 56.5341L36.4044 56.7976L36.6679 56.677L36.6267 56.5912L36.5917 56.5182L31.9054 53.3845L29.194 51.2763L29.0162 51.5049L28.8797 51.7589C29.6194 52.1589 30.772 52.6765 32.042 52.8066C32.6103 52.8638 33.2008 52.8447 33.785 52.6923C34.6613 52.4701 35.5154 51.9462 36.2107 51.0001C36.9092 50.0571 37.4553 48.6982 37.7728 46.7932L37.4871 46.7456L37.449 47.0313C37.449 47.0313 37.4871 47.0377 37.5506 47.044C37.8617 47.0758 38.8365 47.152 39.9858 47.0027C40.9859 46.8694 42.1226 46.5646 43.0719 45.8788C43.545 45.5359 43.9673 45.0977 44.2911 44.5453C44.615 43.9928 44.8372 43.3261 44.9166 42.5323C44.942 42.2815 44.9547 42.018 44.9483 41.7418C44.9388 40.802 44.7515 39.7129 44.3419 38.4429L44.0689 38.5318L44.0593 38.8208C44.0784 38.8208 45.1484 38.8525 46.2914 38.4398C46.8629 38.2334 47.4566 37.9127 47.936 37.4079C48.4154 36.9031 48.771 36.2141 48.8631 35.3124C48.9393 34.5726 48.8409 33.6963 48.5107 32.6549C48.1805 31.6135 47.6185 30.4007 46.7581 28.9846L46.266 29.2862L52.2254 38.8906L52.3969 39.17L52.4064 39.1827C52.4064 39.1827 52.4572 39.2494 52.5239 39.3446L52.7588 39.1795L52.5048 39.3161V39.3224L52.762 39.1859L52.4985 39.3034C52.6445 39.6304 52.6985 40.0812 52.6414 40.6369C52.5302 41.7513 51.9746 43.2594 51.0443 44.9231C50.1172 46.59 48.8187 48.4188 47.2312 50.2158L47.4471 50.4063L47.663 50.5968C49.2727 48.7712 50.5967 46.9107 51.546 45.2025C52.4985 43.4944 53.0827 41.9386 53.2129 40.694C53.2764 40.0749 53.2256 39.5224 53.0224 39.0684V39.0589L53.0097 39.043L53.0001 39.0271L52.9906 39.0113C52.9081 38.8938 52.8573 38.8303 52.8541 38.8271L52.6287 39.0049L52.8731 38.8525L52.708 38.5858L46.7486 28.9814L46.2564 29.2831C47.0978 30.6705 47.6407 31.8421 47.9519 32.8264C48.263 33.8138 48.3456 34.6107 48.2821 35.2521C48.1995 36.0331 47.9074 36.5887 47.5106 37.0078C46.9168 37.6365 46.0564 37.954 45.3389 38.1032C44.9801 38.1794 44.6594 38.2112 44.4308 38.227C44.3165 38.2334 44.2244 38.2366 44.1609 38.2397C44.1292 38.2397 44.107 38.2397 44.0911 38.2397H44.0752H44.072L43.6656 38.227L43.7895 38.6144C44.1832 39.8431 44.3578 40.8782 44.3673 41.7449C44.3705 42.0021 44.361 42.2434 44.3356 42.472C44.2625 43.1896 44.0657 43.7738 43.7863 44.25C43.3672 44.9676 42.7576 45.4597 42.0654 45.8026C41.3765 46.1455 40.6081 46.3328 39.9033 46.4249C38.8206 46.5678 37.884 46.4947 37.6014 46.4662C37.5728 46.4662 37.5506 46.4598 37.5347 46.4598H37.5188H37.5157L37.2394 46.4249L37.195 46.7011C36.9918 47.9298 36.6902 48.9046 36.325 49.6666C35.7789 50.8127 35.0995 51.4795 34.3724 51.8541C33.6453 52.2288 32.8611 52.3113 32.0896 52.2351C30.9402 52.1177 29.8417 51.6319 29.1432 51.2541L28.8289 51.7335L31.5562 53.8544L36.125 56.9087L36.1314 56.9214L36.179 57.023L36.2806 57.0675C36.487 57.1564 36.7124 57.2104 36.9537 57.2358C37.5792 57.2993 38.3126 57.1723 39.1317 56.8929C40.3605 56.4738 41.7797 55.7054 43.2497 54.6386C44.7197 53.5718 46.2437 52.2097 47.663 50.6L47.4471 50.4095L47.4566 50.4032Z" fill="#282725"/>
<path id="Vector_56" d="M45.4882 39.6551C46.0724 42.2586 45.5834 44.0938 44.6278 45.386C42.4878 48.2816 38.0079 48.4626 38.0079 48.4626C36.2489 53.2981 33.6486 53.8315 31.6928 53.5838L28.5337 51.6693C30.5371 52.7552 35.7092 54.7141 37.0078 46.9132C37.0078 46.9132 37.1252 46.929 37.3348 46.9449C38.9921 47.0624 46.2946 47.1291 43.5927 38.6963C43.5927 38.6963 43.907 38.6613 44.3738 38.5439C46.0121 38.1343 49.5204 36.7024 47.698 32.1812C47.3265 31.2636 46.7391 30.2158 45.866 29.0252L46.2724 28.8252L47.952 31.5747L49.2537 33.702C49.6665 38.8804 45.4914 39.6551 45.4914 39.6551H45.4882Z" fill="#CE7314"/>
<path id="Vector_57" d="M45.4882 39.6556C46.0724 42.2591 45.5834 44.0942 44.6277 45.3864C43.3863 46.304 41.7734 47.2787 39.8906 47.4946C38.3254 47.6724 37.2713 47.1327 37.2713 47.1327L37.3316 46.9422C38.4809 47.0247 42.3513 47.0819 43.7102 44.2879C44.3102 43.0592 44.4182 41.2716 43.5895 38.6935C43.5895 38.6935 43.9038 38.6586 44.3706 38.5411C45.8152 38.1792 48.714 37.0235 48.1298 33.658C48.0536 33.2071 47.9107 32.715 47.6948 32.1816C47.7837 31.9625 47.8662 31.7593 47.9488 31.5752L49.2505 33.7024C49.6633 38.8809 45.4882 39.6556 45.4882 39.6556Z" fill="#F3AE13"/>
<path id="Vector_58" d="M45.4882 39.6555L45.2056 39.719C45.4437 40.7763 45.4977 41.6939 45.4151 42.494C45.2754 43.8465 44.7547 44.8593 44.0435 45.6436C42.9767 46.8151 41.4654 47.4565 40.2145 47.7962C39.589 47.9645 39.0302 48.0597 38.6302 48.1137C38.4301 48.1391 38.2682 48.155 38.1603 48.1645C38.1063 48.1677 38.0618 48.1709 38.0364 48.174H38.0047H37.9952L37.8015 48.1804L37.7348 48.3614C36.8934 50.6759 35.8711 51.9523 34.8519 52.6286C34.3439 52.9683 33.8327 53.162 33.3311 53.2604C32.8294 53.3588 32.3405 53.362 31.8769 53.3144C31.8261 53.308 31.7753 53.3017 31.7245 53.2953L31.6896 53.5811L31.8388 53.3334L28.6797 51.4189L28.5305 51.6665L28.394 51.9205C29.1337 52.3206 30.2863 52.8381 31.5563 52.9683C32.1246 53.0254 32.7151 53.0064 33.2993 52.854C34.1756 52.6317 35.0297 52.1079 35.725 51.1617C36.4235 50.2187 36.9696 48.8598 37.2871 46.9548L37.0014 46.9072L36.9633 47.193C36.9633 47.193 37.0014 47.1993 37.0681 47.2057C37.4999 47.2469 39.1667 47.3771 40.8304 46.8818C41.6623 46.631 42.4973 46.2214 43.1609 45.5483C43.8245 44.8752 44.3071 43.9386 44.4341 42.694C44.5452 41.5923 44.3864 40.2492 43.8594 38.6046L43.5863 38.6935L43.6181 38.9792C43.6371 38.9792 44.7262 38.8586 45.8819 38.3061C46.4597 38.0299 47.0566 37.6426 47.5392 37.0965C48.0186 36.5504 48.3806 35.8423 48.4695 34.9565C48.5457 34.204 48.4314 33.3341 48.0567 32.3244C47.6821 31.3148 47.0534 30.1686 46.0914 28.851L45.8596 29.0224L45.9866 29.2796L46.1581 29.1971L49.0029 33.8484L49.2474 33.6992L48.9584 33.7214C48.9997 34.239 48.9934 34.7089 48.9489 35.1311C48.8537 36.0582 48.5838 36.7758 48.2377 37.3409C47.717 38.1887 47.0122 38.6967 46.4343 38.9919C46.1454 39.1412 45.8914 39.2364 45.7072 39.2904C45.6152 39.319 45.5453 39.338 45.4945 39.3507C45.4691 39.3571 45.4532 39.3602 45.4405 39.3634H45.4278L45.1326 39.4174L45.1992 39.7095L45.4818 39.646L45.5358 39.9286C45.5612 39.9222 46.4375 39.7603 47.3805 39.084C47.8504 38.7443 48.3361 38.2776 48.7298 37.6394C49.1235 37.0012 49.422 36.1916 49.5236 35.1851C49.5712 34.7216 49.5776 34.2199 49.5331 33.6706L49.5268 33.6008L46.374 28.4414L45.4247 28.9081L45.6279 29.1844C46.5645 30.4671 47.1677 31.572 47.517 32.5149C47.8662 33.4611 47.9615 34.2421 47.8948 34.8898C47.8154 35.6518 47.517 36.236 47.1042 36.7059C46.4883 37.4108 45.5993 37.8426 44.8595 38.0871C44.4912 38.2109 44.161 38.2871 43.9261 38.3347C43.8086 38.3569 43.7133 38.3728 43.6498 38.3823C43.6181 38.3887 43.5927 38.3919 43.5768 38.3919H43.5578H43.5546L43.2053 38.43L43.3133 38.7665C43.8245 40.3572 43.9642 41.6208 43.8626 42.621C43.7451 43.7513 43.3292 44.545 42.7545 45.1292C41.8941 46.0055 40.6463 46.4024 39.5223 46.5643C38.4016 46.7262 37.4205 46.65 37.1284 46.6183C37.0966 46.6183 37.0744 46.6119 37.0617 46.6119H37.0458H37.0427L36.7664 46.577L36.722 46.8532C36.5188 48.082 36.2172 49.0567 35.852 49.8187C35.3059 50.9649 34.6265 51.6316 33.8994 52.0063C33.1723 52.3809 32.3881 52.4635 31.6166 52.3873C30.4672 52.2698 29.3687 51.784 28.6702 51.4062L28.3844 51.9047L31.5944 53.8509L31.6547 53.8605C31.7087 53.8668 31.7658 53.8732 31.823 53.8795C32.3278 53.9303 32.8771 53.9303 33.4454 53.816C34.2995 53.6509 35.1916 53.2286 36.0203 52.4C36.8522 51.5713 37.6237 50.3426 38.2777 48.5487L38.0079 48.4503L38.0206 48.7392C38.0396 48.7392 39.8462 48.6662 41.7544 47.8661C42.7069 47.466 43.6879 46.8818 44.4753 46.0182C45.2627 45.1578 45.8469 44.0116 45.9962 42.5384C46.0851 41.6685 46.0247 40.6874 45.7739 39.5793L45.4913 39.6428L45.4882 39.6555Z" fill="#282725"/>
<path id="Vector_59" d="M37.3125 46.3294C37.2522 46.9104 36.7347 47.3327 36.1537 47.2756C35.5726 47.2152 35.1504 46.6977 35.2075 46.1167C35.2678 45.5357 35.7854 45.1134 36.3664 45.1737C36.9474 45.234 37.3697 45.7516 37.3094 46.3326L37.3125 46.3294Z" fill="white"/>
<path id="Vector_60" d="M37.3125 46.329L37.0267 46.3004C37.0045 46.5131 36.8997 46.6941 36.7473 46.8179C36.5949 46.9418 36.3949 47.0084 36.1822 46.9862C35.9695 46.964 35.7885 46.8592 35.6647 46.7068C35.5408 46.5544 35.4742 46.3544 35.4964 46.1417C35.5186 45.9289 35.6234 45.748 35.7758 45.6241C35.9282 45.5003 36.1282 45.4336 36.3409 45.4559C36.5537 45.4781 36.7346 45.5829 36.8585 45.7353C36.9823 45.8877 37.049 46.0877 37.0267 46.3004L37.3125 46.329L37.5982 46.3576C37.6744 45.6178 37.1347 44.9574 36.3949 44.8812C35.6551 44.805 34.9947 45.3447 34.9185 46.0845C34.8423 46.8243 35.3821 47.4847 36.1219 47.5609C36.8616 47.6371 37.522 47.0973 37.5982 46.3576L37.3125 46.329Z" fill="#11100C"/>
<path id="Vector_61" d="M30.299 46.2276C32.277 50.6409 29.2131 51.5934 28.6353 51.7299L28.0574 51.3806L27.7336 51.1838C31.8452 49.2343 27.6447 44.9449 27.6447 44.9449C31.8452 45.4275 32.5754 43.205 32.4008 41.1413C32.2865 39.8014 31.788 38.5251 31.6102 38.0996L31.7912 38.233C31.7912 38.233 33.4549 40.211 33.4517 43.0875C32.6802 45.4561 30.3021 46.2276 30.3021 46.2276H30.299Z" fill="#F3AE13"/>
<path id="Vector_62" d="M29.2831 45.7708C29.2831 45.7708 32.0612 50.111 28.0671 51.3778H28.0575L27.7337 51.1841C31.8453 49.2347 27.6448 44.9453 27.6448 44.9453C31.8453 45.4279 32.5756 43.2054 32.4009 41.1416L32.5819 41.2146C32.5819 41.2146 33.2899 45.0215 29.2831 45.7739V45.7708Z" fill="#FFF6EF"/>
<path id="Vector_63" d="M46.539 30.1085L46.2596 30.0323C46.0659 30.7499 45.7325 31.2769 45.3134 31.6802C44.688 32.2802 43.8593 32.5946 43.0147 32.7406C42.1702 32.8867 41.3193 32.8581 40.6843 32.7946C40.3668 32.7628 40.1064 32.7216 39.9223 32.6866C39.8302 32.6708 39.7604 32.6549 39.7127 32.6454C39.6873 32.639 39.6715 32.6358 39.6588 32.6327H39.6461L39.6429 32.6295L39.2841 32.5438V32.9121C39.2905 33.2677 39.2746 33.5979 39.2428 33.9122C39.1063 35.2584 38.665 36.2268 38.0903 36.9443C37.6585 37.4809 37.1473 37.8746 36.6171 38.1667C35.8234 38.6048 34.9915 38.808 34.3565 38.8969C34.039 38.9414 33.7723 38.9604 33.5882 38.9668C33.4961 38.9668 33.4231 38.97 33.3754 38.9668C33.35 38.9668 33.3342 38.9668 33.3215 38.9668H33.3088L32.8928 38.9477L33.023 39.3446C33.3691 40.4051 33.4516 41.2972 33.3754 42.0497C33.2992 42.7958 33.0643 43.4086 32.7563 43.9103C32.2928 44.6659 31.6546 45.1803 31.1307 45.5041C30.8704 45.666 30.6354 45.7803 30.4703 45.8534C30.3878 45.8883 30.3211 45.9169 30.2766 45.9327C30.2544 45.9423 30.2385 45.9486 30.2258 45.9518H30.2131V45.955L30.229 45.9994L30.2163 45.955L30.2322 45.9994L30.2195 45.955L29.9147 46.0534L30.0449 46.3455C30.591 47.5615 30.7307 48.4823 30.6608 49.1712C30.6164 49.6094 30.4894 49.9555 30.3179 50.2412C30.0607 50.6667 29.702 50.9524 29.3654 51.1397C29.0289 51.3271 28.7177 51.4191 28.5812 51.4509L28.6479 51.7303L28.7971 51.4826L27.8954 50.9334L27.7462 51.181L27.87 51.4414C28.5113 51.1366 28.9781 50.7714 29.2956 50.3555C29.6131 49.9428 29.7782 49.4856 29.8226 49.0284C29.8766 48.4886 29.775 47.952 29.5972 47.4504C29.3305 46.7011 28.8987 46.0312 28.5336 45.539C28.1684 45.0501 27.8668 44.7421 27.8605 44.7358L27.6541 44.939L27.6223 45.2247C27.6731 45.2311 27.7208 45.2342 27.7684 45.2406C28.632 45.3295 29.3591 45.3041 29.9718 45.1834C30.8894 45.0056 31.553 44.6024 31.988 44.0658C32.4229 43.5293 32.6293 42.8784 32.696 42.2148C32.8008 41.1702 32.5785 40.0812 32.334 39.2462C32.0896 38.4112 31.8197 37.8333 31.8165 37.8238L31.5562 37.9444L31.5212 38.2302C31.5943 38.2397 31.6673 38.2461 31.7371 38.2556C33.0611 38.3889 34.147 38.2715 35.036 37.9698C36.3695 37.519 37.2394 36.6522 37.7792 35.6934C38.3221 34.7313 38.5475 33.6772 38.6364 32.8041C38.7475 31.7087 38.6428 30.8896 38.6428 30.8737L38.357 30.9118L38.2364 31.1753C39.2174 31.6198 40.0969 31.8548 40.8843 31.9342C41.8209 32.0294 42.6242 31.9056 43.2973 31.6611C44.307 31.296 45.015 30.6673 45.469 30.1339C45.923 29.6005 46.1294 29.156 46.1358 29.1402L45.8754 29.0195L45.6309 29.1719L46.3072 30.2546L46.5517 30.1022L46.7962 29.9498L45.8405 28.4131L45.6151 28.8989C45.6055 28.9211 45.2626 29.6355 44.5133 30.2832C44.1387 30.607 43.6624 30.9182 43.0782 31.1277C42.4909 31.3373 41.7892 31.4452 40.9478 31.3595C40.2303 31.2865 39.4111 31.0706 38.4777 30.6483L38.0078 30.4356L38.0744 30.9499V30.9563C38.084 31.0325 38.1665 31.7818 38.0681 32.747C38.0109 33.2962 37.8998 33.9154 37.6839 34.5218C37.3601 35.433 36.8171 36.3093 35.9059 36.9157C34.9915 37.5222 33.6929 37.8746 31.8006 37.6841C31.734 37.6777 31.6641 37.6682 31.5943 37.6619L31.0799 37.6015L31.299 38.0714V38.0778C31.3276 38.1349 31.5847 38.7064 31.807 39.4907C32.0324 40.2749 32.2197 41.2718 32.1277 42.164C32.0864 42.5545 31.9975 42.9228 31.8387 43.2499C31.5974 43.7388 31.2196 44.1389 30.5878 44.4087C29.9591 44.6754 29.067 44.7993 27.8319 44.6723C27.7843 44.6691 27.7398 44.6627 27.6922 44.6564L26.8857 44.5643L27.4541 45.1453H27.4572C27.508 45.2025 28.0129 45.7359 28.4732 46.4725C28.705 46.8408 28.9209 47.2599 29.0701 47.6885C29.2194 48.1203 29.2924 48.5585 29.2511 48.9744C29.213 49.3363 29.0924 49.6792 28.8415 50.0063C28.5907 50.3333 28.2034 50.6476 27.6255 50.9207L27.1429 51.1493L28.6034 52.0351L28.7177 52.0065C28.9495 51.9494 29.5115 51.7874 30.0576 51.3715C30.3306 51.162 30.6005 50.8889 30.8132 50.5333C31.0259 50.1777 31.1847 49.7427 31.2355 49.2252C31.318 48.4061 31.1466 47.3837 30.5751 46.1042L30.3116 46.2217L30.4005 46.4947C30.4195 46.4884 31.2101 46.2312 32.0515 45.5581C32.4706 45.2215 32.9055 44.777 33.258 44.2055C33.6104 43.634 33.8739 42.9355 33.9596 42.1005C34.0454 41.2591 33.9469 40.2812 33.5818 39.1573L33.3088 39.2462L33.2961 39.5351C33.3215 39.5351 34.7724 39.605 36.3282 38.9446C37.1061 38.6144 37.9093 38.1 38.557 37.2936C39.2047 36.4903 39.6873 35.4013 39.8334 33.9598C39.8683 33.6264 39.8842 33.2708 39.881 32.8962H39.5921L39.5254 33.1788C39.5349 33.1788 39.9763 33.2867 40.643 33.3534C41.5352 33.4423 42.8338 33.4709 44.0466 33.0676C44.653 32.8644 45.2404 32.5533 45.7294 32.0834C46.2215 31.6135 46.612 30.9817 46.8311 30.172L46.8628 30.0514L46.7962 29.9434L46.5517 30.0958L46.539 30.1085Z" fill="#282725"/>
<path id="Vector_64" d="M27.651 50.8826C27.5971 51.4097 27.1272 51.7938 26.5969 51.7399C26.0699 51.6859 25.6857 51.216 25.7397 50.6858C25.7937 50.1587 26.2636 49.7714 26.7938 49.8253C27.3208 49.8793 27.705 50.3524 27.651 50.8794V50.8826Z" fill="white"/>
<path id="Vector_65" d="M27.6509 50.8818L27.3651 50.8532C27.327 51.2215 26.9968 51.4914 26.6285 51.4533C26.4444 51.4342 26.2856 51.3422 26.1745 51.2088C26.0666 51.0755 26.0094 50.9008 26.0253 50.7167C26.0443 50.5294 26.1364 50.3738 26.2698 50.2627C26.4031 50.1547 26.5777 50.0944 26.7619 50.1134C27.1302 50.1515 27.4001 50.4817 27.362 50.85L27.6477 50.8786L27.9335 50.9072C28.0033 50.2214 27.5048 49.6086 26.8159 49.5388C26.1301 49.4689 25.5173 49.9674 25.4474 50.6564C25.3776 51.3422 25.8761 51.9549 26.565 52.0248C27.2508 52.0946 27.8636 51.5962 27.9335 50.9072L27.6477 50.8786L27.6509 50.8818Z" fill="#282725"/>
<path id="Vector_66" d="M27.3367 44.4752C27.2827 45.0022 26.8128 45.3864 26.2826 45.3324C25.7555 45.2784 25.3714 44.8086 25.4253 44.2783C25.4793 43.7513 25.9524 43.3671 26.4794 43.4211C27.0065 43.475 27.3907 43.945 27.3367 44.4752Z" fill="white"/>
<path id="Vector_67" d="M27.3367 44.4755L27.0509 44.447C27.0128 44.8153 26.6826 45.0851 26.3143 45.047C26.127 45.028 25.9714 44.9359 25.8603 44.8026C25.7524 44.6692 25.692 44.4946 25.7111 44.3104C25.7301 44.1263 25.8222 43.9675 25.9556 43.8564C26.0889 43.7485 26.2635 43.6881 26.4477 43.7072C26.816 43.7453 27.0859 44.0755 27.0478 44.4438L27.3335 44.4724L27.6193 44.5009C27.6891 43.8151 27.1906 43.2024 26.5017 43.1325C25.8127 43.0627 25.2031 43.5611 25.1332 44.2501C25.0634 44.9359 25.5619 45.5487 26.2508 45.6185C26.9366 45.6884 27.5494 45.1899 27.6193 44.5009L27.3335 44.4724L27.3367 44.4755Z" fill="#282725"/>
<path id="Vector_68" d="M31.6864 37.1917C31.6325 37.7188 31.1626 38.1029 30.6323 38.0521C30.1053 37.9982 29.7211 37.5251 29.7751 36.998C29.8291 36.471 30.299 36.0868 30.8292 36.1408C31.3562 36.1948 31.7404 36.6647 31.6864 37.1949V37.1917Z" fill="white"/>
<path id="Vector_69" d="M31.6864 37.1918L31.4007 37.1633C31.3816 37.3506 31.2896 37.5062 31.1562 37.6173C31.0229 37.7284 30.8482 37.7856 30.6641 37.7665C30.2958 37.7284 30.0259 37.3982 30.064 37.0299C30.1021 36.6616 30.4323 36.3917 30.8006 36.4298C30.9848 36.4489 31.1435 36.541 31.2546 36.6743C31.3626 36.8077 31.4197 36.9823 31.4039 37.1664L31.6896 37.195L31.9754 37.2236C32.0452 36.5378 31.5467 35.925 30.8578 35.8552C30.172 35.7853 29.5592 36.2838 29.4893 36.9696C29.4195 37.6554 29.918 38.2682 30.6069 38.338C31.2927 38.4079 31.9055 37.9094 31.9754 37.2204L31.6896 37.1918H31.6864Z" fill="#282725"/>
<path id="Vector_70" d="M39.0112 30.4036C38.9572 30.9307 38.4841 31.3149 37.9571 31.2641C37.43 31.2101 37.0458 30.7402 37.0966 30.21C37.1506 29.6829 37.6205 29.2987 38.1507 29.3527C38.6778 29.4067 39.062 29.8798 39.008 30.4068L39.0112 30.4036Z" fill="white"/>
<path id="Vector_71" d="M39.0112 30.4033L38.7254 30.3747C38.6873 30.743 38.3571 31.0129 37.9888 30.9748C37.8015 30.9557 37.6459 30.8636 37.5348 30.7303C37.4268 30.5969 37.3697 30.4223 37.3856 30.2382C37.4046 30.054 37.4967 29.8953 37.63 29.7841C37.7634 29.6762 37.938 29.6159 38.1222 29.6349C38.4905 29.673 38.7603 30.0032 38.7222 30.3715L39.008 30.4001L39.2937 30.4287C39.3636 29.7429 38.8651 29.1301 38.1761 29.0602C37.4903 28.9904 36.8776 29.4889 36.8077 30.1778C36.7379 30.8636 37.2363 31.4764 37.9253 31.5463C38.6111 31.6161 39.2239 31.1176 39.2937 30.4287L39.008 30.4001L39.0112 30.4033Z" fill="#282725"/>
<path id="Vector_72" d="M46.9899 28.5748C46.936 29.1018 46.466 29.486 45.9358 29.432C45.4088 29.3781 45.0246 28.9082 45.0786 28.3779C45.1325 27.8509 45.6025 27.4667 46.1327 27.5207C46.6629 27.5747 47.0439 28.0446 46.9899 28.5748Z" fill="white"/>
<path id="Vector_73" d="M46.9899 28.5746L46.7042 28.5461C46.6851 28.7334 46.5931 28.889 46.4597 29.0001C46.3264 29.108 46.1517 29.1652 45.9676 29.1493C45.7803 29.1303 45.6247 29.0382 45.5136 28.9048C45.4056 28.7715 45.3485 28.5969 45.3643 28.4127C45.4024 28.0444 45.7326 27.7745 46.1009 27.8126C46.4692 27.8507 46.7391 28.1809 46.701 28.5492L46.9868 28.5778L47.2725 28.6064C47.3424 27.9206 46.8439 27.3078 46.1549 27.238C45.4691 27.1681 44.8563 27.6666 44.7865 28.3556C44.7166 29.0414 45.2151 29.6541 45.9041 29.724C46.5899 29.7938 47.2027 29.2954 47.2725 28.6064L46.9868 28.5778L46.9899 28.5746Z" fill="#282725"/>
<path id="Vector_74" d="M28.3052 51.5303L28.5243 51.6636C28.4449 51.6223 28.3719 51.5779 28.302 51.5398V51.5303H28.3052Z" fill="#F1A700"/>
<path id="Vector_75" d="M28.3051 51.5297L28.1558 51.7774L28.3749 51.9107L28.5241 51.6631L28.6607 51.4091C28.5845 51.3678 28.5114 51.3265 28.4416 51.2884L28.3019 51.5392L28.5781 51.6218V51.6123L28.3051 51.5297L28.0288 51.4472V51.4567L27.959 51.6789L28.1622 51.7932C28.2289 51.8313 28.3051 51.8726 28.3876 51.9171L28.6734 51.4186L28.1368 51.0947L28.0288 51.4503L28.3051 51.5329V51.5297Z" fill="#282725"/>
<path id="Vector_76" d="M40.1827 53.2506C40.1669 53.4157 40.0176 53.5363 39.8525 53.5204C39.6874 53.5046 39.5668 53.3553 39.5827 53.1902C39.5985 53.0251 39.7478 52.9045 39.9129 52.9203C40.078 52.9362 40.1986 53.0855 40.1827 53.2506Z" fill="#F1A700"/>
<path id="Vector_77" d="M43.4308 50.6373C43.4149 50.8024 43.2657 50.923 43.1006 50.9071C42.9355 50.8913 42.8149 50.742 42.8307 50.5769C42.8466 50.4118 42.9959 50.2912 43.161 50.3071C43.3261 50.3229 43.4467 50.4722 43.4308 50.6373Z" fill="#F1A700"/>
<path id="Vector_78" d="M48.2377 44.983C48.2218 45.1481 48.0726 45.2687 47.9075 45.2528C47.7424 45.237 47.6218 45.0877 47.6376 44.9226C47.6535 44.7575 47.8027 44.6369 47.9678 44.6528C48.1329 44.6686 48.2536 44.8179 48.2377 44.983Z" fill="#F1A700"/>
<path id="Vector_79" d="M51.1111 38.1568C51.0952 38.3219 50.946 38.4425 50.7809 38.4267C50.6158 38.4108 50.4951 38.2616 50.511 38.0965C50.5269 37.9314 50.6761 37.8107 50.8412 37.8266C51.0063 37.8425 51.127 37.9917 51.1111 38.1568Z" fill="#F1A700"/>
<path id="Vector_80" d="M44.0118 38.306C43.9515 38.887 43.4339 39.3093 42.8529 39.2521C42.2719 39.1918 41.8496 38.6743 41.9068 38.0932C41.9671 37.5122 42.4846 37.0899 43.0656 37.1503C43.6467 37.2106 44.0689 37.7281 44.0086 38.3091L44.0118 38.306Z" fill="white"/>
<path id="Vector_81" d="M44.0117 38.3056L43.726 38.277C43.7037 38.4897 43.599 38.6707 43.4466 38.7945C43.2942 38.9183 43.0941 38.985 42.8814 38.9628C42.6687 38.9406 42.4877 38.8358 42.3639 38.6834C42.2401 38.531 42.1734 38.331 42.1956 38.1182C42.2178 37.9055 42.3226 37.7245 42.475 37.6007C42.6274 37.4769 42.8274 37.4102 43.0402 37.4324C43.2529 37.4547 43.4339 37.5594 43.5577 37.7118C43.6815 37.8642 43.7482 38.0643 43.726 38.277L44.0117 38.3056L44.2975 38.3341C44.3737 37.5944 43.8339 36.934 43.0941 36.8578C42.3544 36.7816 41.694 37.3213 41.6178 38.0611C41.5416 38.8009 42.0813 39.4613 42.8211 39.5375C43.5609 39.6137 44.2213 39.0739 44.2975 38.3341L44.0117 38.3056Z" fill="#11100C"/>
</g>
</g>
</g>
</svg>
